<?xml version="1.0" standalone="no"?>
<!DOCTYPE svg PUBLIC "-//W3C//DTD SVG 20010904//EN"
 "http://www.w3.org/TR/2001/REC-SVG-20010904/DTD/svg10.dtd">
<svg version="1.0" xmlns="http://www.w3.org/2000/svg"
 width="1491.000000pt" height="1491.000000pt" viewBox="0 0 1491.000000 1491.000000"
 preserveAspectRatio="xMidYMid meet">
<metadata>
Created by potrace 1.14, written by Peter Selinger 2001-2017
</metadata>
<g transform="translate(0.000000,1491.000000) scale(0.100000,-0.100000)"
fill="#000000" stroke="none">
<path d="M6380 10013 c-14 -2 -76 -11 -139 -19 -559 -77 -1082 -366 -1466
-809 -28 -33 -68 -82 -88 -109 -20 -27 -37 -43 -38 -35 0 8 -1 199 -1 426 -1
287 -5 413 -12 416 -18 6 -757 0 -822 -7 -170 -17 -342 -101 -464 -225 -58
-60 -69 -72 -195 -221 -44 -52 -82 -97 -85 -100 -3 -3 -41 -48 -85 -100 -44
-52 -92 -108 -106 -125 -15 -16 -46 -53 -70 -80 -24 -28 -60 -71 -79 -95 -19
-24 -42 -51 -51 -59 -8 -9 -91 -105 -184 -214 l-168 -198 -21 23 c-12 13 -62
70 -111 128 -49 58 -92 107 -95 110 -3 3 -53 61 -112 130 -58 69 -115 136
-128 150 -49 56 -67 78 -115 135 -27 32 -57 66 -65 75 -8 9 -34 38 -57 65 -23
28 -53 64 -68 80 -14 17 -58 68 -98 115 -94 111 -83 99 -152 170 -125 129
-254 195 -465 236 -41 8 -830 12 -831 4 -5 -24 -3 -4614 2 -4622 4 -6 162 -8
440 -5 406 3 439 5 518 26 226 58 350 173 408 376 15 55 17 151 19 1063 2 552
4 1005 6 1007 2 2 25 -22 52 -53 65 -76 161 -185 212 -242 22 -25 170 -193
329 -375 159 -181 299 -340 311 -353 l21 -23 193 223 c106 123 198 228 204
233 6 6 36 39 66 75 30 36 60 70 66 75 5 6 39 44 75 85 35 41 69 80 74 86 6 6
64 73 129 148 65 75 119 136 120 136 1 0 1 -453 2 -1008 0 -929 2 -1012 18
-1071 49 -181 160 -301 334 -360 108 -37 175 -46 327 -46 194 0 252 8 377 53
117 42 223 134 272 237 47 99 59 174 62 400 2 116 3 221 3 234 1 21 6 18 38
-25 93 -124 199 -235 366 -382 160 -141 453 -312 681 -396 94 -36 312 -99 372
-109 16 -3 56 -10 89 -15 102 -18 127 -22 220 -29 176 -15 755 -7 878 12 12 2
49 6 82 10 32 4 66 8 75 10 8 1 36 5 61 9 156 23 381 78 462 114 l46 20 65
-91 c84 -118 112 -147 210 -218 45 -33 86 -64 93 -69 7 -6 15 -10 19 -10 4 0
26 -9 49 -20 93 -45 293 -85 420 -84 115 0 122 1 257 35 136 33 189 49 206 62
7 6 35 20 63 33 65 31 175 102 277 181 167 128 297 258 435 435 42 53 59 68
87 73 19 4 55 12 80 20 25 7 70 18 100 25 30 7 78 23 105 35 l50 22 35 -22
c30 -19 120 -46 199 -61 13 -3 49 -11 80 -18 55 -13 246 -15 286 -3 138 40
268 66 284 57 46 -24 231 -63 316 -65 154 -5 415 73 489 147 16 17 20 16 69
-21 47 -36 133 -72 198 -84 13 -3 56 -12 94 -22 99 -23 265 -30 355 -15 41 6
130 25 197 41 117 27 124 28 165 13 24 -9 97 -29 163 -45 100 -23 137 -27 220
-25 109 4 274 40 385 83 280 111 596 464 710 793 24 71 74 268 85 340 4 25 9
54 12 65 2 11 6 74 7 140 3 102 -1 140 -25 250 -16 72 -38 153 -50 182 -18 45
-121 197 -153 228 -28 26 -126 95 -136 95 -14 0 -13 12 4 35 30 43 75 166 100
274 45 192 50 255 29 346 -8 33 -16 67 -18 75 -14 69 -34 115 -73 173 -100
149 -217 214 -438 244 -23 3 -65 0 -95 -7 -30 -6 -67 -14 -82 -17 -90 -15
-220 -87 -297 -163 -97 -97 -195 -273 -300 -540 -29 -74 -57 -144 -61 -155 -5
-11 -22 -56 -38 -100 -30 -87 -33 -88 -96 -60 -25 11 -58 21 -110 31 -5 1 -45
9 -88 19 -145 32 -307 -2 -424 -91 -40 -30 -73 -59 -73 -65 0 -5 -24 8 -52 30
-29 22 -80 51 -113 65 -82 35 -306 85 -376 83 -47 -2 -55 0 -48 13 38 74 92
306 92 395 0 66 -17 156 -49 254 -40 120 -210 285 -315 305 -13 2 -55 11 -92
20 -92 21 -113 20 -245 -13 -94 -24 -126 -37 -184 -77 -78 -53 -164 -135 -173
-165 -5 -16 -12 -11 -45 32 -40 53 -152 145 -220 179 -21 11 -72 29 -114 40
-150 42 -175 45 -301 44 -173 -2 -405 -66 -585 -161 -77 -41 -304 -189 -333
-217 -7 -6 -30 -25 -51 -41 -113 -85 -350 -321 -452 -450 -21 -27 -41 -52 -45
-55 -3 -3 -18 -22 -33 -42 -21 -28 -32 -36 -45 -30 -9 4 -511 7 -1116 7
l-1100 -1 -1 -339 c-1 -373 3 -416 58 -537 36 -80 116 -161 199 -203 102 -52
176 -66 389 -72 107 -3 197 -7 199 -9 3 -2 4 -226 2 -344 -2 -91 -278 -163
-626 -164 -322 0 -558 89 -755 286 -175 175 -284 391 -326 643 -17 106 -25
350 -13 425 4 25 10 65 13 90 38 277 162 531 342 699 65 61 197 146 244 158
14 3 30 10 36 14 21 17 216 58 307 65 113 9 169 9 322 0 310 -17 535 -69 755
-173 445 -212 610 -209 829 16 214 220 270 504 138 701 -87 129 -317 306 -547
421 -92 45 -323 130 -390 143 -14 2 -63 13 -110 24 -47 11 -103 23 -125 26
-22 3 -74 10 -115 16 -41 6 -100 13 -130 16 -30 3 -73 8 -95 10 -49 7 -650 13
-685 7z m-1734 -2393 c0 -1063 -3 -1397 -12 -1390 -40 34 -184 307 -242 460
-107 282 -155 562 -156 915 0 164 7 311 19 375 2 14 7 41 9 60 17 123 42 235
86 375 57 184 131 345 233 508 34 53 62 97 63 97 0 0 0 -630 0 -1400z m5006
-458 c29 -22 62 -44 74 -50 39 -20 194 -54 227 -49 87 13 248 61 319 96 43 21
77 32 74 25 -7 -17 -73 -330 -81 -379 -15 -100 -19 -108 -65 -136 -53 -32 -76
-35 -119 -13 -33 16 -130 42 -188 50 -34 4 -181 -30 -217 -50 -67 -38 -125
-98 -192 -199 -37 -56 -82 -119 -98 -140 -43 -54 -196 -209 -237 -239 -48 -37
-108 -69 -112 -60 -5 10 -1 97 7 152 3 25 8 65 12 90 22 170 208 627 361 890
21 36 51 89 68 117 l29 51 43 -58 c23 -33 66 -77 95 -98z"/>
</g>
</svg>
